<svg width="1679" height="1506" viewBox="0 0 1679 1506" fill="none" xmlns="http://www.w3.org/2000/svg">
<circle opacity="0.8" cx="1643.5" cy="1040.5" r="158" stroke="white" stroke-width="5"/>
<circle opacity="0.2" cx="1376" cy="144" r="281.5" stroke="white" stroke-width="5"/>
<circle opacity="0.2" cx="715" cy="1222" r="281.5" stroke="white" stroke-width="5"/>
<circle opacity="0.3" cx="4.5" cy="1005.5" r="4.5" fill="#F8F8F8"/>
<circle opacity="0.3" cx="4.5" cy="1045.5" r="4.5" fill="#F8F8F8"/>
<circle opacity="0.3" cx="4.5" cy="1085.5" r="4.5" fill="#F8F8F8"/>
<circle opacity="0.3" cx="4.5" cy="1125.5" r="4.5" fill="#F8F8F8"/>
<circle opacity="0.3" cx="44.5" cy="1005.5" r="4.5" fill="#F8F8F8"/>
<circle opacity="0.3" cx="44.5" cy="1045.5" r="4.5" fill="#F8F8F8"/>
<circle opacity="0.3" cx="44.5" cy="1085.5" r="4.5" fill="#F8F8F8"/>
<circle opacity="0.3" cx="44.5" cy="1125.5" r="4.5" fill="#F8F8F8"/>
<circle opacity="0.3" cx="84.5" cy="1005.5" r="4.5" fill="#F8F8F8"/>
<circle opacity="0.3" cx="84.5" cy="1045.5" r="4.5" fill="#F8F8F8"/>
<circle opacity="0.3" cx="84.5" cy="1085.5" r="4.5" fill="#F8F8F8"/>
<circle opacity="0.3" cx="84.5" cy="1125.5" r="4.5" fill="#F8F8F8"/>
<circle opacity="0.3" cx="124.5" cy="1005.5" r="4.5" fill="#F8F8F8"/>
<circle opacity="0.3" cx="124.5" cy="1045.5" r="4.5" fill="#F8F8F8"/>
<circle opacity="0.3" cx="124.5" cy="1085.5" r="4.5" fill="#F8F8F8"/>
<circle opacity="0.3" cx="124.5" cy="1125.5" r="4.5" fill="#F8F8F8"/>
<circle opacity="0.3" cx="1320.5" cy="1000.5" r="4.5" fill="#F8F8F8"/>
<circle opacity="0.3" cx="1320.5" cy="1040.5" r="4.5" fill="#F8F8F8"/>
<circle opacity="0.3" cx="1320.5" cy="1080.5" r="4.5" fill="#F8F8F8"/>
<circle opacity="0.3" cx="1320.5" cy="1120.5" r="4.5" fill="#F8F8F8"/>
<circle opacity="0.3" cx="1360.5" cy="1000.5" r="4.5" fill="#F8F8F8"/>
<circle opacity="0.3" cx="1360.5" cy="1040.5" r="4.5" fill="#F8F8F8"/>
<circle opacity="0.3" cx="1360.5" cy="1080.5" r="4.5" fill="#F8F8F8"/>
<circle opacity="0.3" cx="1360.5" cy="1120.5" r="4.5" fill="#F8F8F8"/>
<circle opacity="0.3" cx="1400.5" cy="1000.5" r="4.5" fill="#F8F8F8"/>
<circle opacity="0.3" cx="1400.5" cy="1040.5" r="4.5" fill="#F8F8F8"/>
<circle opacity="0.3" cx="1400.5" cy="1080.5" r="4.5" fill="#F8F8F8"/>
<circle opacity="0.3" cx="1400.5" cy="1120.5" r="4.5" fill="#F8F8F8"/>
<circle opacity="0.3" cx="1440.5" cy="1000.5" r="4.5" fill="#F8F8F8"/>
<circle opacity="0.3" cx="1440.5" cy="1040.5" r="4.5" fill="#F8F8F8"/>
<circle opacity="0.3" cx="1440.5" cy="1080.5" r="4.5" fill="#F8F8F8"/>
<circle opacity="0.3" cx="1440.5" cy="1120.5" r="4.5" fill="#F8F8F8"/>
<circle opacity="0.3" cx="1409.5" cy="199.5" r="4.5" fill="white"/>
<circle opacity="0.3" cx="1409.5" cy="239.5" r="4.5" fill="white"/>
<circle opacity="0.3" cx="1409.5" cy="279.5" r="4.5" fill="white"/>
<circle opacity="0.3" cx="1409.5" cy="319.5" r="4.5" fill="white"/>
<circle opacity="0.3" cx="1449.5" cy="199.5" r="4.5" fill="white"/>
<circle opacity="0.3" cx="1449.5" cy="239.5" r="4.5" fill="white"/>
<circle opacity="0.3" cx="1449.5" cy="279.5" r="4.5" fill="white"/>
<circle opacity="0.3" cx="1449.5" cy="319.5" r="4.5" fill="white"/>
<circle opacity="0.3" cx="1489.5" cy="199.5" r="4.5" fill="white"/>
<circle opacity="0.3" cx="1489.5" cy="239.5" r="4.5" fill="white"/>
<circle opacity="0.3" cx="1489.5" cy="279.5" r="4.5" fill="white"/>
<circle opacity="0.3" cx="1489.5" cy="319.5" r="4.5" fill="white"/>
<circle opacity="0.3" cx="1529.5" cy="199.5" r="4.5" fill="white"/>
<circle opacity="0.3" cx="1529.5" cy="239.5" r="4.5" fill="white"/>
<circle opacity="0.3" cx="1529.5" cy="279.5" r="4.5" fill="white"/>
<circle opacity="0.3" cx="1529.5" cy="319.5" r="4.5" fill="white"/>
<circle opacity="0.3" cx="9.5" cy="199.5" r="4.5" fill="#F8F8F8"/>
<circle opacity="0.3" cx="9.5" cy="239.5" r="4.5" fill="#F8F8F8"/>
<circle opacity="0.3" cx="9.5" cy="279.5" r="4.5" fill="#F8F8F8"/>
<circle opacity="0.3" cx="9.5" cy="319.5" r="4.5" fill="#F8F8F8"/>
<circle opacity="0.3" cx="49.5" cy="199.5" r="4.5" fill="#F8F8F8"/>
<circle opacity="0.3" cx="49.5" cy="239.5" r="4.5" fill="#F8F8F8"/>
<circle opacity="0.3" cx="49.5" cy="279.5" r="4.5" fill="#F8F8F8"/>
<circle opacity="0.3" cx="49.5" cy="319.5" r="4.5" fill="#F8F8F8"/>
<circle opacity="0.3" cx="89.5" cy="199.5" r="4.5" fill="#F8F8F8"/>
<circle opacity="0.3" cx="89.5" cy="239.5" r="4.5" fill="#F8F8F8"/>
<circle opacity="0.3" cx="89.5" cy="279.5" r="4.5" fill="#F8F8F8"/>
<circle opacity="0.3" cx="89.5" cy="319.5" r="4.5" fill="#F8F8F8"/>
<circle opacity="0.3" cx="129.5" cy="199.5" r="4.5" fill="#F8F8F8"/>
<circle opacity="0.3" cx="129.5" cy="239.5" r="4.5" fill="#F8F8F8"/>
<circle opacity="0.3" cx="129.5" cy="279.5" r="4.5" fill="#F8F8F8"/>
<circle opacity="0.3" cx="129.5" cy="319.5" r="4.5" fill="#F8F8F8"/>
</svg>
