<svg width="37" height="37" viewBox="0 0 37 37" fill="none" xmlns="http://www.w3.org/2000/svg">
<path d="M35.52 0H1.48C0.661375 0 0 0.661375 0 1.48V35.52C0 36.3386 0.661375 37 1.48 37H35.52C36.3386 37 37 36.3386 37 35.52V1.48C37 0.661375 36.3386 0 35.52 0ZM31.2465 10.7994H28.2911C25.974 10.7994 25.5254 11.9001 25.5254 13.5189V17.0847H31.0569L30.3354 22.6671H25.5254V37H19.758V22.6718H14.9341V17.0847H19.758V12.9685C19.758 8.19087 22.6764 5.587 26.9406 5.587C28.9849 5.587 30.7378 5.73963 31.2511 5.809V10.7994H31.2465Z" fill="white"/>
</svg>
