<svg width="53" height="53" viewBox="0 0 53 53" fill="none" xmlns="http://www.w3.org/2000/svg">
<path d="M44.1666 39.7497H39.75V20.4268L26.5 28.708L13.25 20.4268V39.7497H8.83329V13.2497H11.4833L26.5 22.6351L41.5166 13.2497H44.1666V39.7497ZM44.1666 8.83301H8.83329C6.38204 8.83301 4.41663 10.7984 4.41663 13.2497V39.7497C4.41663 40.921 4.88195 42.0444 5.71024 42.8727C6.53852 43.701 7.66192 44.1663 8.83329 44.1663H44.1666C45.338 44.1663 46.4614 43.701 47.2897 42.8727C48.118 42.0444 48.5833 40.921 48.5833 39.7497V13.2497C48.5833 12.0783 48.118 10.9549 47.2897 10.1266C46.4614 9.29833 45.338 8.83301 44.1666 8.83301V8.83301Z" fill="white"/>
</svg>
