<svg width="38" height="38" viewBox="0 0 38 38" fill="none" xmlns="http://www.w3.org/2000/svg">
<path d="M37.8776 11.2159C37.8563 9.62034 37.5571 8.04066 36.9934 6.54751C36.5046 5.28805 35.758 4.14423 34.8013 3.18913C33.8447 2.23404 32.6989 1.48868 31.4374 1.00067C29.961 0.447365 28.4012 0.148185 26.8245 0.115867C24.7945 0.0252801 24.1509 0 18.9979 0C13.8448 0 13.1844 1.41263e-07 11.1691 0.115867C9.59318 0.148423 8.03416 0.447599 6.55842 1.00067C5.29666 1.48834 4.15076 2.23358 3.19403 3.18872C2.2373 4.14385 1.49081 5.28785 1.00233 6.54751C0.447 8.02035 0.147972 9.57713 0.11817 11.1506C0.0274322 13.1793 0 13.8218 0 18.9663C0 24.1108 -1.5722e-08 24.768 0.11817 26.782C0.149822 28.3578 0.447356 29.9125 1.00233 31.3893C1.49163 32.6486 2.23867 33.7921 3.19572 34.7468C4.15277 35.7016 5.29878 36.4465 6.56053 36.934C8.03223 37.5096 9.59152 37.8302 11.1713 37.882C13.2034 37.9726 13.847 38 19 38C24.153 38 24.8135 38 26.8287 37.882C28.4054 37.851 29.9652 37.5526 31.4416 36.9993C32.7028 36.5108 33.8482 35.7652 34.8049 34.8102C35.7615 33.8552 36.5083 32.7116 36.9977 31.4525C37.5526 29.9778 37.8502 28.4231 37.8818 26.8452C37.9726 24.8186 38 24.1761 38 19.0295C37.9958 13.885 37.9958 13.232 37.8776 11.2159V11.2159ZM18.9852 28.6949C13.5958 28.6949 9.2299 24.3362 9.2299 18.9558C9.2299 13.5753 13.5958 9.21665 18.9852 9.21665C21.5725 9.21665 24.0538 10.2427 25.8833 12.0692C27.7128 13.8956 28.7406 16.3728 28.7406 18.9558C28.7406 21.5387 27.7128 24.0159 25.8833 25.8424C24.0538 27.6688 21.5725 28.6949 18.9852 28.6949V28.6949ZM29.1288 11.1274C28.83 11.1277 28.5341 11.0691 28.258 10.9551C27.9819 10.8411 27.731 10.6738 27.5197 10.4629C27.3084 10.2519 27.1409 10.0015 27.0267 9.72581C26.9124 9.45016 26.8538 9.15472 26.8541 8.85642C26.8541 8.55832 26.9129 8.26315 27.0271 7.98775C27.1414 7.71235 27.3089 7.46211 27.52 7.25133C27.7312 7.04055 27.9818 6.87335 28.2577 6.75927C28.5335 6.6452 28.8292 6.58649 29.1278 6.58649C29.4264 6.58649 29.722 6.6452 29.9979 6.75927C30.2737 6.87335 30.5244 7.04055 30.7355 7.25133C30.9467 7.46211 31.1141 7.71235 31.2284 7.98775C31.3427 8.26315 31.4015 8.55832 31.4015 8.85642C31.4015 10.112 30.3844 11.1274 29.1288 11.1274Z" fill="white"/>
<path d="M19 26C22.866 26 26 22.866 26 19C26 15.134 22.866 12 19 12C15.134 12 12 15.134 12 19C12 22.866 15.134 26 19 26Z" fill="white"/>
</svg>
