<?xml version="1.0" standalone="no"?>
<!DOCTYPE svg PUBLIC "-//W3C//DTD SVG 20010904//EN"
 "http://www.w3.org/TR/2001/REC-SVG-20010904/DTD/svg10.dtd">
<svg version="1.0" xmlns="http://www.w3.org/2000/svg"
 width="135.000000pt" height="60.000000pt" viewBox="0 0 135.000000 60.000000"
 preserveAspectRatio="xMidYMid meet">

<g transform="translate(0.000000,60.000000) scale(0.100000,-0.100000)"
fill="#000000" stroke="none">
<path d="M0 300 l0 -300 675 0 675 0 0 300 0 300 -675 0 -675 0 0 -300z m278
265 c-2 -2 -7 -4 -13 -5 -24 -5 -47 -24 -65 -53 -11 -18 -20 -35 -20 -38 0 -3
17 -12 39 -19 30 -10 46 -10 75 0 20 6 36 15 36 19 0 12 124 0 148 -15 30 -20
29 -71 -3 -118 l-24 -36 24 -36 c28 -41 33 -95 10 -114 -19 -16 -34 -5 -17 12
17 17 15 55 -5 89 -10 16 -20 29 -23 29 -3 0 -20 -12 -37 -27 -30 -27 -54
-103 -32 -103 5 0 9 -4 9 -10 0 -5 -6 -10 -14 -10 -7 0 -19 -14 -26 -30 -18
-44 -67 -82 -94 -74 -30 9 -52 31 -71 70 -15 33 -18 34 -70 34 -71 0 -93 20
-93 84 0 38 3 46 18 46 29 0 36 -21 12 -40 -17 -15 -19 -20 -8 -41 10 -20 20
-24 65 -27 l53 -3 -7 42 c-8 49 -49 91 -79 82 -15 -4 -18 -2 -13 11 4 11 -3
32 -18 54 -52 76 -22 132 70 132 44 0 57 4 62 18 12 32 45 74 67 81 18 7 52 4
44 -4z m67 -40 c0 -27 -3 -30 -30 -30 -21 0 -31 5 -33 18 -6 33 6 49 35 45 24
-3 28 -8 28 -33z m443 -32 c5 -17 -26 -29 -40 -15 -6 6 -7 15 -3 22 9 14 37 9
43 -7z m-136 -60 l3 -68 38 -3 c24 -2 37 -8 37 -18 0 -10 -14 -14 -55 -14
l-55 0 0 85 c0 68 3 85 15 85 11 0 15 -16 17 -67z m128 -38 c0 -51 -3 -65 -15
-65 -12 0 -15 14 -15 65 0 51 3 65 15 65 12 0 15 -14 15 -65z m128 53 c18 -18
16 -118 -2 -118 -11 0 -16 14 -18 47 -2 36 -7 49 -20 51 -15 3 -18 -4 -18 -47
0 -39 -4 -51 -15 -51 -12 0 -15 14 -15 65 l0 65 38 0 c21 0 43 -5 50 -12z
m152 -61 c0 -43 -5 -78 -12 -85 -18 -18 -88 -16 -88 3 0 10 10 15 29 15 17 0
33 5 36 10 3 6 -5 10 -19 10 -32 0 -56 25 -56 57 0 39 27 63 72 63 l38 0 0
-73z m72 26 c2 -36 7 -49 21 -51 14 -3 17 4 17 47 0 39 4 51 15 51 12 0 15
-14 15 -65 l0 -65 -39 0 c-48 0 -71 26 -71 81 0 38 6 49 26 49 8 0 14 -17 16
-47z m186 35 c7 -7 12 -36 12 -65 l0 -53 -34 0 c-49 0 -66 9 -66 34 0 29 18
46 48 46 13 0 20 4 17 10 -3 6 -17 10 -31 10 -15 0 -24 6 -24 15 0 19 60 21
78 3z m-588 -192 c0 -10 -13 -16 -37 -18 -49 -4 -53 -32 -5 -36 46 -5 43 -32
-3 -32 -33 0 -35 -2 -35 -35 0 -24 -5 -35 -15 -35 -12 0 -15 16 -15 85 l0 85
55 0 c41 0 55 -4 55 -14z m90 -41 c0 -8 -9 -15 -20 -15 -17 0 -20 -7 -20 -51
0 -43 -3 -50 -17 -47 -14 2 -19 15 -21 57 -3 59 5 71 51 71 17 0 27 -5 27 -15z
m108 3 c7 -7 12 -36 12 -65 l0 -53 -39 0 c-37 0 -71 19 -71 40 0 17 32 40 56
40 14 0 22 4 19 10 -3 6 -17 10 -31 10 -15 0 -24 6 -24 15 0 19 60 21 78 3z
m140 0 c18 -18 16 -118 -3 -118 -10 0 -15 10 -15 34 0 44 -9 66 -26 66 -10 0
-14 -14 -14 -51 0 -43 -3 -50 -17 -47 -14 2 -19 15 -21 52 -2 27 -1 55 2 62 7
17 77 19 94 2z m132 -2 c0 -8 -10 -16 -21 -18 -52 -8 -45 -68 8 -68 34 0 24
-24 -11 -28 -56 -7 -89 66 -49 110 19 22 73 25 73 4z m110 4 c9 -6 14 -27 15
-62 l0 -53 -44 0 c-31 0 -47 5 -55 18 -15 24 3 51 38 55 32 4 25 22 -10 22
-15 0 -24 6 -24 15 0 17 55 21 80 5z m-876 -56 c22 -8 20 -41 -2 -53 -32 -17
-56 21 -30 47 14 14 12 14 32 6z"/>
<path d="M42 438 c-7 -7 -12 -21 -12 -32 0 -23 35 -86 48 -86 19 0 61 58 67
93 l7 37 -49 0 c-27 0 -54 -5 -61 -12z"/>
<path d="M365 413 c4 -24 18 -49 38 -67 l31 -29 23 27 c25 29 30 75 11 94 -7
7 -34 12 -60 12 l-49 0 6 -37z"/>
<path d="M167 418 c-8 -31 -4 -32 32 -10 31 19 32 20 9 26 -34 9 -35 8 -41
-16z"/>
<path d="M302 431 c-10 -6 -7 -12 13 -25 31 -20 40 -16 30 13 -7 22 -21 26
-43 12z"/>
<path d="M205 387 c-39 -22 -40 -24 -43 -84 l-3 -62 46 -27 c46 -26 46 -26 85
-9 59 27 72 45 68 101 -3 43 -7 51 -43 76 -49 33 -59 34 -110 5z m76 -47 c39
-21 16 -90 -30 -90 -16 0 -41 30 -41 50 0 20 25 50 41 50 6 0 19 -5 30 -10z"/>
<path d="M113 323 c-29 -19 -29 -27 0 -46 22 -14 22 -14 22 24 0 22 0 39 0 38
0 0 -10 -7 -22 -16z"/>
<path d="M380 300 c0 -33 11 -38 30 -15 10 12 10 18 0 30 -19 23 -30 18 -30
-15z"/>
<path d="M166 188 c9 -30 8 -30 38 -22 l27 6 -31 19 c-39 24 -43 24 -34 -3z"/>
<path d="M311 191 l-24 -19 23 -7 c23 -7 40 6 40 33 0 17 -11 15 -39 -7z"/>
<path d="M210 147 c-14 -6 -26 -12 -28 -13 -8 -5 30 -64 49 -78 27 -19 59 -6
82 34 23 39 22 46 -14 59 -39 13 -56 13 -89 -2z"/>
<path d="M997 423 c-4 -3 -7 -17 -7 -30 0 -16 6 -23 20 -23 16 0 20 7 20 30 0
28 -17 40 -33 23z"/>
<path d="M1273 383 c-20 -7 -15 -23 7 -23 11 0 20 4 20 9 0 13 -12 19 -27 14z"/>
<path d="M877 154 c-13 -13 -7 -24 14 -24 11 0 19 5 17 12 -5 14 -22 21 -31
12z"/>
<path d="M1262 153 c-15 -6 -6 -23 14 -23 8 0 14 7 14 15 0 15 -6 17 -28 8z"/>
</g>
</svg>
